HIERARCHY
ROOT Hips
{
	OFFSET -0.001795 -0.223333 0.028219
	CHANNELS 6 Xposition Yposition Zposition Zrotation Yrotation Xrotation 
	JOINT LeftUpLeg
	{
		OFFSET 0.069520 -0.091406 -0.006815
		CHANNELS 3 Zrotation Yrotation Xrotation
		JOINT LeftLeg
		{
			OFFSET 0.034277 -0.375199 -0.004496
			CHANNELS 3 Zrotation Yrotation Xrotation
			JOINT LeftFoot
			{
				OFFSET -0.013596 -0.397961 -0.043693
				CHANNELS 3 Zrotation Yrotation Xrotation
				JOINT LeftToe
				{
					OFFSET 0.026358 -0.055791 0.119288
					CHANNELS 3 Zrotation Yrotation Xrotation
					End Site
					{
						OFFSET 0.000000 0.000000 0.000000
					}
				}
			}
		}
	}
	JOINT RightUpLeg
	{
		OFFSET -0.067670 -0.090522 -0.004320
		CHANNELS 3 Zrotation Yrotation Xrotation
		JOINT RightLeg
		{
			OFFSET -0.038290 -0.382569 -0.008850
			CHANNELS 3 Zrotation Yrotation Xrotation
			JOINT RightFoot
			{
				OFFSET 0.015774 -0.398415 -0.042312
				CHANNELS 3 Zrotation Yrotation Xrotation
				JOINT RightToe
				{
					OFFSET -0.025372 -0.048144 0.123348
					CHANNELS 3 Zrotation Yrotation Xrotation
					End Site
					{
						OFFSET 0.000000 0.000000 0.000000
					}
				}
			}
		}
	}
	JOINT Spine
	{
		OFFSET -0.002533 0.108963 -0.026696
		CHANNELS 3 Zrotation Yrotation Xrotation
		JOINT Spine1
		{
			OFFSET 0.005487 0.135180 0.001092
			CHANNELS 3 Zrotation Yrotation Xrotation
			JOINT Spine2
			{
				OFFSET 0.001457 0.052922 0.025425
				CHANNELS 3 Zrotation Yrotation Xrotation
				JOINT Neck
				{
					OFFSET -0.002778 0.213870 -0.042857
					CHANNELS 3 Zrotation Yrotation Xrotation
					JOINT Head
					{
						OFFSET 0.005152 0.064970 0.051349
						CHANNELS 3 Zrotation Yrotation Xrotation
						End Site
						{
							OFFSET 0.000000 0.000000 0.000000
						}
					}
				}
				JOINT LeftShoulder
				{
					OFFSET 0.078845 0.121749 -0.034090
					CHANNELS 3 Zrotation Yrotation Xrotation
					JOINT LeftArm
					{
						OFFSET 0.090977 0.030469 -0.008868
						CHANNELS 3 Zrotation Yrotation Xrotation
						JOINT LeftForeArm
						{
							OFFSET 0.259612 -0.012772 -0.027456
							CHANNELS 3 Zrotation Yrotation Xrotation
							JOINT LeftHand
							{
								OFFSET 0.249234 0.008986 -0.001171
								CHANNELS 3 Zrotation Yrotation Xrotation
								End Site
								{
									OFFSET 0.000000 0.000000 0.000000
								}
							}
						}
					}
				}
				JOINT RightShoulder
				{
					OFFSET -0.081759 0.118833 -0.038615
					CHANNELS 3 Zrotation Yrotation Xrotation
					JOINT RightArm
					{
						OFFSET -0.096012 0.032551 -0.009143
						CHANNELS 3 Zrotation Yrotation Xrotation
						JOINT RightForeArm
						{
							OFFSET -0.253742 -0.013329 -0.021401
							CHANNELS 3 Zrotation Yrotation Xrotation
							JOINT RightHand
							{
								OFFSET -0.255298 0.007772 -0.005559
								CHANNELS 3 Zrotation Yrotation Xrotation
								End Site
								{
									OFFSET 0.000000 0.000000 0.000000
								}
							}
						}
					}
				}
			}
		}
	}
}
MOTION
Frames: 6
Frame Time: 0.050000
0.029975 0.919771 -0.095507 -1.536447 -18.870663 6.475710 8.769075 0.142895 -7.794361 -8.794640 1.949934 7.256162 10.188148 21.090504 3.490210 0.000000 0.000000 0.000000 -0.071718 2.661311 -21.207829 -7.051746 2.470529 14.052694 3.454104 2.048726 7.616493 0.000000 0.000000 0.000000 6.590065 -0.324335 1.909945 2.133117 -0.813812 4.264595 -12.979422 -0.486734 4.273832 17.456995 -11.181924 -10.874282 0.000000 0.000000 0.000000 -11.516199 -37.616000 18.664928 -11.056435 -51.053675 1.479232 73.732472 -29.612711 -19.029271 0.000000 0.000000 0.000000 0.257864 22.682851 7.483097 0.714546 39.785403 -2.736182 -48.587346 31.085654 -13.272735 0.000000 0.000000 0.000000 
0.030250 0.920023 -0.094877 -1.728482 -19.847523 6.862313 8.648215 0.149218 -7.735102 -8.534670 1.889786 6.881808 10.660615 21.955677 3.823412 0.000000 0.000000 0.000000 0.301743 2.836719 -21.813095 -7.401522 2.600301 14.276954 3.904497 2.716985 7.917992 0.000000 0.000000 0.000000 6.958903 -0.352968 2.066422 2.064649 -0.741922 4.532691 -12.900460 -1.187606 4.154551 16.420513 -10.672646 -10.230562 0.000000 0.000000 0.000000 -10.539102 -37.691010 18.579355 -9.358493 -52.371809 1.001573 71.823112 -28.193375 -17.280792 0.000000 0.000000 0.000000 0.592505 22.569175 7.378265 0.302976 40.053644 -2.959522 -47.471838 30.933089 -13.004332 0.000000 0.000000 0.000000 
0.030254 0.920227 -0.093760 -1.982535 -20.704592 7.327166 8.588166 0.160398 -7.780648 -8.238767 1.826711 6.622828 11.097283 22.743304 4.114113 0.000000 0.000000 0.000000 0.735863 3.027296 -22.417059 -7.751407 2.731706 14.503675 4.297968 3.283325 8.189579 0.000000 0.000000 0.000000 7.135437 -0.371611 2.152700 2.191064 -0.772268 4.670543 -12.726991 -1.852277 3.957665 15.533204 -10.110176 -10.192929 0.000000 0.000000 0.000000 -9.594269 -37.521035 18.354811 -7.754811 -53.237340 0.508360 70.190571 -26.667112 -15.643942 0.000000 0.000000 0.000000 0.799742 22.627653 7.323814 -0.006322 40.315594 -3.153436 -46.239845 31.134538 -12.840127 0.000000 0.000000 0.000000 
0.030098 0.920412 -0.091982 -1.961435 -21.594129 7.412565 8.287261 0.148010 -7.463192 -8.042119 1.787536 6.348554 11.513760 23.483445 4.459617 0.000000 0.000000 0.000000 0.752664 3.123508 -22.772051 -7.819182 2.835038 14.913405 4.637214 3.895629 8.267735 0.000000 0.000000 0.000000 7.303132 -0.374959 2.170822 2.028669 -0.658387 4.808017 -12.464535 -2.088209 3.989471 15.033563 -9.922372 -9.653915 0.000000 0.000000 0.000000 -8.907731 -37.704908 18.315725 -6.771724 -53.914134 0.205473 69.148645 -25.385085 -14.457929 0.000000 0.000000 0.000000 0.830778 22.546953 7.238157 -0.376658 40.590711 -3.355882 -45.041768 31.177494 -12.566992 0.000000 0.000000 0.000000 
0.029736 0.920460 -0.089818 -1.978561 -22.280449 7.404006 8.076200 0.143067 -7.169296 -7.877466 1.769361 6.319467 11.834800 24.064961 4.671782 0.000000 0.000000 0.000000 0.870794 3.167483 -22.811544 -7.992745 2.918419 15.081822 4.883811 4.424683 8.220753 0.000000 0.000000 0.000000 7.491489 -0.371521 2.140902 1.878759 -0.568452 4.746300 -12.403490 -2.086529 4.230435 14.690890 -9.776434 -9.461811 0.000000 0.000000 0.000000 -8.512439 -37.680886 18.211287 -6.061919 -54.178193 -0.046128 67.962602 -24.631821 -13.650537 0.000000 0.000000 0.000000 0.627407 22.739070 7.263790 -0.839279 40.700774 -3.561489 -44.289888 30.979589 -12.299378 0.000000 0.000000 0.000000 
0.029187 0.920781 -0.087711 -1.744815 -22.782906 7.373958 7.539429 0.095011 -7.052753 -7.522060 1.705170 6.382475 12.105434 24.491051 5.043352 0.000000 0.000000 0.000000 0.721742 3.162016 -22.816265 -8.148774 2.964304 15.092707 5.061006 4.830779 8.161807 0.000000 0.000000 0.000000 7.618249 -0.348276 1.913331 1.675348 -0.441811 4.919682 -12.302629 -1.692531 4.056284 14.669524 -9.670983 -9.874532 0.000000 0.000000 0.000000 -8.240631 -38.222932 18.338368 -5.827111 -53.880442 -0.146128 66.955125 -24.334067 -13.253590 0.000000 0.000000 0.000000 0.482545 22.731700 7.267291 -1.106636 40.583264 -3.613722 -43.763648 30.801531 -12.031272 0.000000 0.000000 0.000000 
